PathFileType	4	(X/Y/Z)	Patient4_TMGait_0pt4_01_right_01.trc.trc
DataRate	CameraRate	NumFrames	NumMarkers	Units	OrigDataRate	OrigDataStartFrame	OrigNumFrames
78.212290502793	78.212290502793	5	33	mm	78.212290502793	71	       141
Frame#	Time	Sacral			L.Shoulder			Chest			R.Shoulder			Neck			R.ASIS			L.ASIS			R.Thigh.Superior			R.Thigh.Lateral			R.Thigh.Inferior			R.Patella			L.Thigh.Superior			L.Thigh.Lateral			L.Thigh.Inferior			L.Patella			L.Shank.Superior			L.Shank.Lateral			L.Shank.Inferior			R.Shank.Superior			R.Shank.Lateral			R.Shank.Inferior			R.Heel			R.Midfoot.Superior			R.Midfoot.Lateral			R.Toe			L.Heel			L.Midfoot.Lateral			L.Midfoot.Superior			L.Toe			L.Elbow			L.Wrist			R.Elbow			R.Wrist			
		X1	Y1	Z1	X2	Y2	Z2	X3	Y3	Z3	X4	Y4	Z4	X5	Y5	Z5	X6	Y6	Z6	X7	Y7	Z7	X8	Y8	Z8	X9	Y9	Z9	X10	Y10	Z10	X11	Y11	Z11	X12	Y12	Z12	X13	Y13	Z13	X14	Y14	Z14	X15	Y15	Z15	X16	Y16	Z16	X17	Y17	Z17	X18	Y18	Z18	X19	Y19	Z19	X20	Y20	Z20	X21	Y21	Z21	X22	Y22	Z22	X23	Y23	Z23	X24	Y24	Z24	X25	Y25	Z25	X26	Y26	Z26	X27	Y27	Z27	X28	Y28	Z28	X29	Y29	Z29	X30	Y30	Z30	X31	Y31	Z31	X32	Y32	Z32	X33	Y33	Z33	

71	1.705000000000	850.342259112619	1008.878041113596	530.841041574018	1009.667589429110	1421.851623251554	304.970305516903	1139.932448388376	1353.375644415147	443.575596009240	1101.130498177202	1438.736917256210	627.488195205776	1036.240005739196	1489.893707527844	454.948302813716	1093.188294834027	933.000018606157	605.273227297847	1033.396746515022	957.052970669284	335.976460946047	1093.074004819383	723.836075994137	576.120531160872	1003.045500943939	627.391801899281	650.847220487933	1055.817337417560	564.396316350448	562.211020204442	1040.578871602969	479.682868809743	569.602683747630	1107.646688556976	769.372932237188	364.095650149768	1040.922185107961	640.946828494903	300.032673318276	1145.530843752014	578.662349291587	352.918409421870	1160.637270566110	509.641986061181	354.290476442859	1141.024704314760	436.347345831488	345.297520655251	1062.598860673950	311.589862646422	299.240420229232	1142.796712912463	206.896114010475	354.200878655034	1004.012144471521	394.259711642255	581.958137918009	926.802711713597	299.782617007866	652.397581877845	950.712817988930	200.872316021648	587.069203724104	800.417747635867	42.226253169434	566.032454733649	972.105316437540	96.283867014603	596.678874379185	884.850849041238	36.107932943570	639.391959070552	1092.841491356669	44.107218742831	624.326404696951	1044.458452249520	38.958882360292	397.879934501728	1114.699999258581	37.948433373701	314.342548281748	1194.050147499429	106.515994473764	333.812858617629	1322.750945967627	64.494981223101	300.702677219776	878.344426636856	1083.093468492460	238.377619999316	852.596197006591	825.848418736861	236.266818192688	1211.176774342255	1107.890489334987	727.458521784200	1439.880278577492	1099.584669666610	622.207356368244	
72	1.717785714286	852.070868397093	1007.733184015403	527.958780870941	1010.090634265763	1420.933106260504	301.877438648801	1140.288333292361	1353.146168302230	440.839118194934	1100.626551413961	1438.322655725197	624.662681836436	1036.246412631243	1489.178277942273	451.839270967537	1094.851960203312	932.439565317040	603.294427534618	1035.820302666211	955.966799264754	334.016972928633	1094.418321481279	722.829009321124	574.784914092098	1003.443119508755	626.542632956682	649.068310000099	1056.355752015329	563.159676603694	560.877878082932	1040.589053318971	477.965606407268	568.169489654819	1109.470047184409	767.051991228339	361.964588772092	1040.891663107933	639.274507316829	298.970415715807	1145.326719818107	576.437185866184	351.760623807442	1159.258226364578	507.020422774195	353.681538402816	1139.308195985389	433.722810851859	344.818903953017	1059.591743131674	309.562864688344	299.047621614136	1138.353571762354	204.242224303616	354.797013227819	1002.800363637108	393.088453500275	580.754657573738	924.458224008304	299.811672342518	651.720301494860	947.019882885647	200.378955151639	586.656675493485	795.292941728226	42.491148766254	566.178533233831	967.135381659398	96.316318209909	596.757577995074	879.767022824947	36.118289338411	639.412912129582	1087.768683610036	43.728810351286	624.389029776109	1037.241044302607	38.368236334003	398.813054146089	1107.330561746741	36.753414659901	315.026496084710	1188.242612907964	103.289175146760	335.221065641695	1316.269401670551	58.700436388230	301.573686888818	879.434925551645	1082.182643154951	234.961932366175	853.107193522567	824.974194443792	233.458863976089	1210.165488588883	1106.392289331108	723.094348409782	1439.015423898324	1095.945854405519	617.831054003324	
73	1.730571428571	853.769747620929	1006.727248001671	525.065301113012	1010.619279942969	1420.068808399589	298.670303007630	1140.706257570683	1353.008439968567	438.041944547176	1100.167256709722	1438.073910121073	621.741680601353	1036.353291868476	1488.575092041713	448.574207446628	1096.505409773548	931.928071286899	601.163991822240	1038.149225469333	955.197415779815	331.980070795958	1096.108916046668	721.924098147172	573.200400543011	1004.341410905637	625.701282943049	647.058620641186	1057.473123634014	561.983181128960	559.313682244372	1041.335743698314	476.118922709021	566.616354598058	1111.135369834537	765.014370527444	359.869013287385	1041.137340985508	638.055360140270	297.554007980793	1145.090354554184	574.588471243161	350.681244102086	1158.025445831610	504.896011653554	352.989000010662	1137.845688437650	431.595869186413	344.160973352811	1057.221863390468	307.952034889517	298.370760841173	1134.483012313500	202.118731330288	355.099127096868	1002.120298180417	391.888115942366	579.420586169899	922.480034687629	299.991520980640	650.917983366826	943.582495062077	199.994042227774	586.202845221235	790.205531585955	43.076063111786	566.350355440696	962.306009301910	96.436022013785	596.864980308864	874.738254772994	36.294302321098	639.423561767500	1082.747582293366	43.259355985467	624.461919369424	1030.870002462073	37.992767524813	399.349599190765	1100.910965308934	35.954634417547	315.422368366291	1183.058272554694	100.776447981156	336.362699434298	1310.557155165591	54.132768538174	302.391157217987	881.027624473314	1081.138135440026	231.316469260712	854.743898442107	823.884110037978	230.313753560699	1208.544736581553	1104.924929362590	719.134141364685	1437.517197110326	1091.144359163837	613.878376455857	
74	1.743357142857	855.383071374616	1005.912073824798	522.180571223456	1011.244989827444	1419.313652786334	295.401995041818	1141.190610042921	1352.969017422489	435.203737931179	1099.821317414902	1438.013422706222	618.747928498481	1036.589060392491	1488.119046906499	445.203997231275	1098.078615889393	931.507691090795	598.868187746804	1040.301294753362	954.779227607920	329.814774009937	1098.056912283787	721.180327141322	571.330811937904	1005.744887922791	624.905773544480	644.843745400806	1059.200618656452	560.913975517485	557.539692381308	1042.899500876990	474.176140798759	565.017464495437	1112.664854694213	763.431568773000	357.789067066462	1041.710395098314	637.326243807074	295.814007764113	1144.913480193354	573.198541482572	349.596240020574	1157.001210552002	503.297644032010	352.170941031015	1136.657119998286	429.975848011665	343.333858425847	1055.416502343308	306.801996403431	297.276180159865	1131.080809782927	200.527456561724	355.126934841418	1002.032343184038	390.700389317574	578.008161632165	920.907837329676	300.379837357851	650.011152763127	940.449465257092	199.779173800933	585.737434762189	785.178654279985	44.108923410858	566.548592861761	957.659307031432	96.656883601379	596.998260473696	869.780669481291	36.708793450011	639.427170386112	1077.789315571669	42.697014260543	624.544802159102	1025.233450445940	37.817346961733	399.559920759214	1095.293922651521	35.504967026107	315.573984657634	1178.349692970387	98.972960474125	337.201438659665	1305.463797727982	50.795794847121	303.069828913187	883.058157772705	1080.037445758211	227.505727800350	857.472476520071	822.650562230028	226.846718962931	1206.376705132404	1103.545582758078	715.615498866363	1435.376022731435	1085.181109014657	610.369535260900	
75	1.756142857143	856.866254639597	1005.317793324190	519.304411242206	1011.949357416485	1418.715020179367	292.126495258760	1141.736871896989	1353.030161083835	432.346939412836	1099.634377322342	1438.148130969525	615.709659129642	1036.964561247179	1487.833865526609	441.787143935492	1099.509647652467	931.218249908147	596.403947302201	1042.226762192079	954.709619517579	327.476423936103	1100.171951782025	720.654905816727	569.166454713423	1007.651600163599	624.193761914271	642.466381291365	1061.568391772015	559.998885944426	555.597345920947	1045.347105032707	472.181736520321	563.461789507327	1114.097371316786	762.400440110382	355.686743842357	1042.582669493662	637.052750593701	293.816190932797	1144.831474695314	572.256576709354	348.417813399595	1156.183619646063	502.177301595805	351.209465947372	1135.696517278240	428.810708776051	342.373810598370	1054.026909301739	306.093678007400	295.882631800706	1127.992184321665	199.412180224234	354.935855491702	1002.595763364527	389.570660978277	576.582134822237	919.785623746661	301.034338772330	649.027753605778	937.674339781261	199.796276062907	585.294832388378	780.244442309837	45.721412271653	566.772896795803	953.241134460548	96.990098738460	597.158205844146	864.912983589158	37.437951039794	639.429955178449	1072.902411244862	42.048958671358	624.636339318622	1020.151854597658	37.804834625204	399.527856381981	1090.268149185616	35.330735678626	315.539387269216	1173.938200057633	97.801953955473	337.743409912669	1300.795966059126	48.562714908280	303.563335465536	885.456165635901	1078.953067550478	223.592585422172	861.252493695856	821.347745010178	223.079892167409	1203.735374292736	1102.304865862292	712.559627483629	1432.576322598535	1078.066527908143	607.320565836779	
